<?xml version="1.0" standalone="no"?>
<!DOCTYPE svg PUBLIC "-//W3C//DTD SVG 20010904//EN"
 "http://www.w3.org/TR/2001/REC-SVG-20010904/DTD/svg10.dtd">
<svg version="1.0" xmlns="http://www.w3.org/2000/svg"
 width="765.000000pt" height="765.000000pt" viewBox="0 0 765.000000 765.000000"
 preserveAspectRatio="xMidYMid meet">

<g transform="translate(0.000000,765.000000) scale(0.100000,-0.100000)"
fill="#f3f4f9" stroke="none">
<path d="M1580 6860 l0 -790 -790 0 -790 0 0 -3035 0 -3035 3035 0 3035 0 2
788 3 787 788 3 787 2 0 3035 0 3035 -3035 0 -3035 0 0 -790z m2090 -1078 c0
-857 -3 -1562 -7 -1566 -4 -4 -404 390 -890 876 l-883 883 0 682 0 683 890 0
890 0 0 -1558z m3670 -122 l0 -1680 -1682 2 -1683 3 -3 1665 c-1 916 0 1671 3
1678 3 9 350 12 1685 12 l1680 0 0 -1680z m-4780 -785 c594 -594 879 -886 870
-890 -8 -3 -712 -4 -1565 -3 l-1550 3 -3 888 -2 887 682 0 683 0 885 -885z
m1108 -2882 l2 -1683 -1680 0 -1680 0 0 1685 0 1685 1678 -2 1677 -3 3 -1682z
m3672 787 l0 -900 -677 0 -678 0 -892 892 c-491 491 -893 896 -893 900 0 5
707 8 1570 8 l1570 0 0 -900z m-1570 -1792 l0 -678 -900 0 -900 0 0 1563 c0
860 3 1567 7 1571 4 4 409 -395 900 -886 l893 -893 0 -677z"/>
</g>
</svg>
